<?xml version="1.0" encoding="UTF-8"?>
<svg width="875px" height="58px" viewBox="0 0 875 58" version="1.1" xmlns="http://www.w3.org/2000/svg" xmlns:xlink="http://www.w3.org/1999/xlink">
    <!-- Generator: Sketch 45.2 (43514) - http://www.bohemiancoding.com/sketch -->
    <title>wave_green</title>
    <desc>Created with Sketch.</desc>
    <defs>
        <linearGradient x1="0%" y1="50%" x2="74.6097242%" y2="50%" id="linearGradient-1">
            <stop stop-color="#46CE92" offset="0%"></stop>
            <stop stop-color="#46CE92" offset="100%"></stop>
        </linearGradient>
        <linearGradient x1="0%" y1="50%" x2="76.2276786%" y2="50%" id="linearGradient-2">
            <stop stop-color="#46CE92" offset="0%"></stop>
            <stop stop-color="#46CE92" offset="100%"></stop>
        </linearGradient>
        <linearGradient x1="0%" y1="50%" x2="100%" y2="50%" id="linearGradient-3">
            <stop stop-color="#46CE92" offset="0%"></stop>
            <stop stop-color="#46CE92" offset="100%"></stop>
        </linearGradient>
    </defs>
    <g id="Page-1" stroke="none" stroke-width="1" fill="none" fill-rule="evenodd">
        <g id="wave_green" transform="translate(437.500000, 29.000000) scale(-1, 1) translate(-437.500000, -29.000000) ">
            <path d="M127.689492,0.206254768 C178.745972,-1.92058891 427.644804,12.4011472 874.385987,43.1714631 L0,43.1714631 C24.8345289,25.3570326 46.1536194,14.0236993 63.9572715,9.17146305 C84.4565378,3.58455978 93.8746407,1.61486936 127.689492,0.206254768 Z" id="Path" fill-opacity="0.2" fill="url(#linearGradient-1)" transform="translate(437.192993, 21.585732) rotate(180.000000) translate(-437.192993, -21.585732) "></path>
            <path d="M276.053211,0.160402093 C327.109691,-1.96644158 526.55395,17.0572991 874.385987,57.2316243 L27.8708847,57.2316243 L0,57.2316243 C106.168227,22.4278341 198.185964,3.4040934 276.053211,0.160402093 Z" id="Path" fill-opacity="0.100000001" fill="url(#linearGradient-2)" transform="translate(437.192993, 28.615812) rotate(180.000000) translate(-437.192993, -28.615812) "></path>
            <path d="M332.819374,0.290513153 C413.973704,-2.50375768 594.495908,14.8592761 874.385987,52.3796144 L1.42108547e-14,52.3796144 C140.725253,20.4478177 251.665045,3.08478399 332.819374,0.290513153 Z" id="Path" fill-opacity="0.3" fill="url(#linearGradient-3)" transform="translate(437.192993, 26.189807) scale(-1, 1) rotate(-180.000000) translate(-437.192993, -26.189807) "></path>
            <path d="M532.191252,0.0395106414 C615.808462,0.838989808 729.873374,12.1723231 874.385987,34.0395106 L0,34.0395106 C271.176958,10.5733648 448.574042,-0.759968525 532.191252,0.0395106414 Z" id="First" fill="#46CE92" transform="translate(437.192993, 17.019755) rotate(180.000000) translate(-437.192993, -17.019755) "></path>
        </g>
    </g>
</svg>