<?xml version="1.0" encoding="UTF-8"?>
<svg width="47px" height="60px" viewBox="0 0 47 60" version="1.1" xmlns="http://www.w3.org/2000/svg" xmlns:xlink="http://www.w3.org/1999/xlink">
    <!-- Generator: Sketch 41.2 (35397) - http://www.bohemiancoding.com/sketch -->
    <title>documentation icon</title>
    <desc>Created with Sketch.</desc>
    <defs></defs>
    <g id="Pages-(Dropbox-blue)" stroke="none" stroke-width="1" fill="none" fill-rule="evenodd">
        <g id="Product-/-Platform" transform="translate(-249.000000, -2301.000000)">
            <g id="documentation-icon" transform="translate(250.000000, 2302.000000)">
                <g id="47---Document-(interaction,-communication,-essential,-webby)">
                    <g id="Page-1">
                        <g id="Icons">
                            <g id="Document">
                                <polygon id="Fill-462" fill="#FFFFFF" points="45 14 31 0 0 0 0 58 45 58"></polygon>
                                <polygon id="Stroke-463" stroke="#2E5BEC" stroke-width="2" points="45 14 31 0 0 0 0 58 45 58"></polygon>
                                <polyline id="Stroke-603" stroke="#2E5BEC" stroke-width="2" points="31 0 31 14 45 14"></polyline>
                                <path d="M29,44 L36,44" id="Stroke-604-path" stroke="#BECDFF" stroke-width="2"></path>
                                <path d="M14,44 L24,44" id="Stroke-604-path" stroke="#BECDFF" stroke-width="2"></path>
                                <path d="M14,30 L24,30" id="Stroke-604-path" stroke="#BECDFF" stroke-width="2"></path>
                                <path d="M24,23 L31,23" id="Stroke-604-path" stroke="#BECDFF" stroke-width="2"></path>
                                <path d="M9,23 L14,23" id="Stroke-604-path" stroke="#46CE92" stroke-width="2"></path>
                                <path d="M29,30 L36,30" id="Stroke-604-path" stroke="#46CE92" stroke-width="2"></path>
                                <path d="M9,37 L26,37" id="Stroke-604-path" stroke="#BECDFF" stroke-width="2"></path>
                                <path d="M9,15 L18,15" id="Stroke-604-path" stroke="#BECDFF" stroke-width="2"></path>
                            </g>
                        </g>
                    </g>
                </g>
            </g>
        </g>
    </g>
</svg>