<?xml version="1.0" encoding="UTF-8"?>
<svg width="60px" height="57px" viewBox="0 0 60 57" version="1.1" xmlns="http://www.w3.org/2000/svg" xmlns:xlink="http://www.w3.org/1999/xlink">
    <!-- Generator: Sketch 43.2 (39069) - http://www.bohemiancoding.com/sketch -->
    <title>employee_satisfaction_heart</title>
    <desc>Created with Sketch.</desc>
    <defs></defs>
    <g id="Page-1" stroke="none" stroke-width="1" fill="none" fill-rule="evenodd">
        <g id="employee_satisfaction" transform="translate(1.000000, 1.000000)">
            <path d="M44,15.945 L44,37.086 C44,39.808 41.793,42.015 39.071,42.015 L22,42.086 L12,53.086 L12,42.086 L4.929,42.086 C2.207,42.086 0,39.879 0,37.156 L0,16.015 C0,13.293 2.207,11.086 4.929,11.086 L39.071,11.015 C41.793,11.015 44,13.222 44,15.945 L44,15.945 L44,15.945 Z" id="Fill-13" fill="#FFFFFF" fill-rule="nonzero"></path>
            <path d="M44,15.945 L44,37.086 C44,39.808 41.793,42.015 39.071,42.015 L22,42.086 L12,53.086 L12,42.086 L4.929,42.086 C2.207,42.086 0,39.879 0,37.156 L0,16.015 C0,13.293 2.207,11.086 4.929,11.086 L39.071,11.015 C41.793,11.015 44,13.222 44,15.945 L44,15.945 L44,15.945 Z" id="Stroke-14" stroke="#2E5BEC" stroke-width="2"></path>
            <path d="M53.071,0.086 L18.929,0.015 C16.207,0.015 14,2.222 14,4.945 L14,11.067 L39.071,11.015 C41.793,11.015 44,13.222 44,15.945 L44,34.386 L51,42.086 L51,31.086 L53.071,31.086 C55.793,31.086 58,28.878 58,26.156 L58,5.015 C58,2.292 55.793,0.086 53.071,0.086 L53.071,0.086 L53.071,0.086 Z" id="Fill-27" fill="#BECDFF" fill-rule="nonzero"></path>
            <path d="M53.071,0.086 L18.929,0.015 C16.207,0.015 14,2.222 14,4.945 L14,11.067 L39.071,11.015 C41.793,11.015 44,13.222 44,15.945 L44,34.386 L51,42.086 L51,31.086 L53.071,31.086 C55.793,31.086 58,28.878 58,26.156 L58,5.015 C58,2.292 55.793,0.086 53.071,0.086 L53.071,0.086 L53.071,0.086 Z" id="Stroke-28" stroke="#2E5BEC" stroke-width="2"></path>
            <path d="M11,30 C9.343,30 8,28.657 8,27 C8,25.343 9.343,24 11,24 C12.657,24 14,25.343 14,27 C14,28.657 12.657,30 11,30 Z" id="Fill-92" fill="#FFFFFF" fill-rule="nonzero"></path>
            <path d="M14,27 C14,28.657 12.657,30 11,30 C9.343,30 8,28.657 8,27 C8,25.343 9.343,24 11,24 C12.657,24 14,25.343 14,27 L14,27 L14,27 Z" id="Stroke-93" stroke="#46CE92" stroke-width="2"></path>
            <path d="M22,30 C20.343,30 19,28.657 19,27 C19,25.343 20.343,24 22,24 C23.657,24 25,25.343 25,27 C25,28.657 23.657,30 22,30 Z" id="Fill-94" fill="#FFFFFF" fill-rule="nonzero"></path>
            <path d="M25,27 C25,28.657 23.657,30 22,30 C20.343,30 19,28.657 19,27 C19,25.343 20.343,24 22,24 C23.657,24 25,25.343 25,27 L25,27 L25,27 Z" id="Stroke-95" stroke="#46CE92" stroke-width="2"></path>
            <path d="M33,30 C31.343,30 30,28.657 30,27 C30,25.343 31.343,24 33,24 C34.657,24 36,25.343 36,27 C36,28.657 34.657,30 33,30 Z" id="Fill-96" fill="#FFFFFF" fill-rule="nonzero"></path>
            <path d="M36,27 C36,28.657 34.657,30 33,30 C31.343,30 30,28.657 30,27 C30,25.343 31.343,24 33,24 C34.657,24 36,25.343 36,27 L36,27 L36,27 Z" id="Stroke-97" stroke="#46CE92" stroke-width="2"></path>
        </g>
        <g id="Love_Heart_SVG" transform="translate(4.000000, 15.000000)" fill-rule="nonzero" fill="#DD687B">
            <path d="M17.0452518,24.5070606 C16.2501247,23.8114899 14.2647295,22.4554633 12.6332644,21.4936692 C7.79936161,18.6439502 7.1414664,18.231538 5.17880157,16.8207329 C1.56050588,14.219824 0.0238752168,11.6067632 0.0291409807,8.06366073 C0.031710293,6.33405917 0.182726618,5.66769764 0.803190574,4.64818627 C1.85585495,2.91850077 3.40648183,1.63320856 5.38895776,0.847115913 C6.7930759,0.290356239 7.48558487,0.0429970877 9.8303678,0.0328773199 C12.2831786,0.0222955452 12.7995243,0.245551165 14.2423557,0.864329175 C15.9985287,1.61748735 17.8061253,3.22711671 18.1797809,4.37052565 L18.4105604,5.07673432 L18.979681,4.10412217 C22.195747,-1.39205829 32.4635177,-1.30982818 36.0367555,4.24072752 C37.1702872,6.00152007 37.2947347,9.76125165 36.2895861,11.8790891 C34.9784083,14.6417297 32.515701,16.7479171 26.8227615,19.9754341 C23.0892353,22.0920973 18.863736,25.2946583 18.5695871,25.7444615 C18.228132,26.2666032 18.5533002,25.8262871 17.0452518,24.5070606 Z" id="path2417"></path>
        </g>
    </g>
</svg>