<?xml version="1.0" encoding="UTF-8"?>
<svg width="60px" height="41px" viewBox="0 0 60 41" version="1.1" xmlns="http://www.w3.org/2000/svg" xmlns:xlink="http://www.w3.org/1999/xlink">
    <!-- Generator: Sketch 41.2 (35397) - http://www.bohemiancoding.com/sketch -->
    <title>12 analytics business office desk webby</title>
    <desc>Created with Sketch.</desc>
    <defs></defs>
    <g id="Pages-(Dropbox-blue)" stroke="none" stroke-width="1" fill="none" fill-rule="evenodd">
        <g id="Product-/-Platform" transform="translate(-817.000000, -3580.000000)">
            <g id="Run-your-business-on-Timekit" transform="translate(-355.000000, 3286.000000)">
                <g id="12-analytics-business-office-desk-webby" transform="translate(1173.000000, 295.000000)">
                    <g id="12--Analytics--(business,-office,-desk,-webby)">
                        <g id="Page-1">
                            <g id="Icons">
                                <g id="12--Analytics--(business,-office,-desk,-webby)">
                                    <path d="M37,34 L37,36 L21,36 L21,34 L0,34 L0,37 C0,38.105 0.895,39 2,39 L56,39 C57.105,39 58,38.105 58,37 L58,34 L37,34 L37,34 Z" id="Fill-148" fill="#FFFFFF"></path>
                                    <path d="M37,34 L37,36 L21,36 L21,34 L0,34 L0,37 C0,38.105 0.895,39 2,39 L56,39 C57.105,39 58,38.105 58,37 L58,34 L37,34 L37,34 L37,34 Z" id="Stroke-149" stroke="#2E5BEC" stroke-width="2"></path>
                                    <path d="M21,34 L21,36 L37,36 L37,34 L54,34 L54,2 C54,0.895 53.105,0 52,0 L6,0 C4.895,0 4,0.895 4,2 L4,34 L21,34 L21,34 Z" id="Fill-150" fill="#FFFFFF"></path>
                                    <path d="M21,34 L21,36 L37,36 L37,34 L54,34 L54,2 C54,0.895 53.105,0 52,0 L6,0 C4.895,0 4,0.895 4,2 L4,34 L21,34 L21,34 L21,34 Z" id="Stroke-151" stroke="#2E5BEC" stroke-width="2"></path>
                                    <path d="M21,19 C21,20.657 19.657,22 18,22 C16.343,22 15,20.657 15,19 C15,17.343 16.343,16 18,16 C19.657,16 21,17.343 21,19" id="Fill-328" fill="#BECDFF"></path>
                                    <path d="M21,19 C21,20.657 19.657,22 18,22 C16.343,22 15,20.657 15,19 C15,17.343 16.343,16 18,16 C19.657,16 21,17.343 21,19 L21,19 L21,19 Z" id="Stroke-329" stroke="#2E5BEC"></path>
                                    <path d="M41,14 C41,15.657 39.657,17 38,17 C36.343,17 35,15.657 35,14 C35,12.343 36.343,11 38,11 C39.657,11 41,12.343 41,14" id="Fill-330" fill="#BECDFF"></path>
                                    <path d="M41,14 C41,15.657 39.657,17 38,17 C36.343,17 35,15.657 35,14 C35,12.343 36.343,11 38,11 C39.657,11 41,12.343 41,14 L41,14 L41,14 Z" id="Stroke-331" stroke="#2E5BEC"></path>
                                    <path d="M50,24 C50,25.657 48.657,27 47,27 C45.343,27 44,25.657 44,24 C44,22.343 45.343,21 47,21 C48.657,21 50,22.343 50,24" id="Fill-332" fill="#BECDFF"></path>
                                    <path d="M50,24 C50,25.657 48.657,27 47,27 C45.343,27 44,25.657 44,24 C44,22.343 45.343,21 47,21 C48.657,21 50,22.343 50,24 L50,24 L50,24 Z" id="Stroke-333" stroke="#2E5BEC"></path>
                                    <path d="M28,26 C28,27.657 26.657,29 25,29 C23.343,29 22,27.657 22,26 C22,24.343 23.343,23 25,23 C26.657,23 28,24.343 28,26" id="Fill-334" fill="#BECDFF"></path>
                                    <path d="M28,26 C28,27.657 26.657,29 25,29 C23.343,29 22,27.657 22,26 C22,24.343 23.343,23 25,23 C26.657,23 28,24.343 28,26 L28,26 L28,26 Z" id="Stroke-335" stroke="#2E5BEC"></path>
                                    <path d="M14,26 C14,27.657 12.657,29 11,29 C9.343,29 8,27.657 8,26 C8,24.343 9.343,23 11,23 C12.657,23 14,24.343 14,26" id="Fill-336" fill="#BECDFF"></path>
                                    <path d="M14,26 C14,27.657 12.657,29 11,29 C9.343,29 8,27.657 8,26 C8,24.343 9.343,23 11,23 C12.657,23 14,24.343 14,26 L14,26 L14,26 Z" id="Stroke-337" stroke="#2E5BEC"></path>
                                    <path d="M15.4456,20.5544 L12.5546,23.4454" id="Stroke-338" stroke="#2E5BEC"></path>
                                    <path d="M23.4456,23.4456 L20.5546,20.5546" id="Stroke-339" stroke="#2E5BEC"></path>
                                    <path d="M35.4456,15.5544 L27.1216,23.8784" id="Stroke-340" stroke="#2E5BEC"></path>
                                    <path d="M45.4456,21.4456 L40.5546,15.5546" id="Stroke-341" stroke="#2E5BEC"></path>
                                    <path d="M8,4 L19,4" id="Stroke-712" stroke="#46CE92"></path>
                                    <path d="M23,4 L32,4" id="Stroke-713" stroke="#46CE92"></path>
                                    <path d="M8,8 L14,8" id="Stroke-714" stroke="#46CE92"></path>
                                    <path d="M18,8 L27,8" id="Stroke-715" stroke="#46CE92"></path>
                                    <path d="M31,8 L32,8" id="Stroke-716" stroke="#46CE92"></path>
                                </g>
                            </g>
                        </g>
                    </g>
                </g>
            </g>
        </g>
    </g>
</svg>