<?xml version="1.0" encoding="UTF-8"?>
<svg width="34px" height="49px" viewBox="0 0 34 49" version="1.1" xmlns="http://www.w3.org/2000/svg" xmlns:xlink="http://www.w3.org/1999/xlink">
    <!-- Generator: Sketch 41.2 (35397) - http://www.bohemiancoding.com/sketch -->
    <title>49 wait for connect file document paper write note webby</title>
    <desc>Created with Sketch.</desc>
    <defs></defs>
    <g id="Pages-(Dropbox-blue)" stroke="none" stroke-width="1" fill="none" fill-rule="evenodd">
        <g id="Pricing-v1" transform="translate(-375.000000, -1846.000000)">
            <g id="49-wait-for-connect-file-document-paper-write-note-webby" transform="translate(376.000000, 1847.000000)">
                <g id="49--Wait-for-Connect-File--(document,-paper,-write,-note,-webby)">
                    <g id="Page-1">
                        <g id="Icons">
                            <g id="49--Wait-for-Connect-File--(document,-paper,-write,-note,-webby)">
                                <g id="Group-7">
                                    <path d="M21.0320017,4.00600334 L21.0320017,2.00000334 C21.0320017,0.894003342 20.1350017,-0.00199665829 19.0290017,3.34170792e-06 L13.0060017,0.00800334171 C11.9030017,0.0100033417 11.0090017,0.905003342 11.0090017,2.00800334 L11.0090017,4.00600334 L8.01000167,4.00600334 C7.45800167,4.00600334 7.01100167,4.45200334 7.01000167,5.00400334 L7.00000167,9.01000334 C6.99900167,9.56400334 7.44800167,10.0130033 8.00100167,10.0120033 L23.9990017,9.99800334 C24.5510017,9.99700334 24.9980017,9.55000334 24.9980017,8.99800334 L24.9980017,5.00600334 C24.9980017,4.45400334 24.5500017,4.00600334 23.9980017,4.00600334 L21.0320017,4.00600334 Z" id="Fill-523" fill="#BECDFF"></path>
                                    <path d="M21.0320017,4.00600334 L21.0320017,2.00000334 C21.0320017,0.894003342 20.1350017,-0.00199665829 19.0290017,3.34170792e-06 L13.0060017,0.00800334171 C11.9030017,0.0100033417 11.0090017,0.905003342 11.0090017,2.00800334 L11.0090017,4.00600334 L8.01000167,4.00600334 C7.45800167,4.00600334 7.01100167,4.45200334 7.01000167,5.00400334 L7.00000167,9.01000334 C6.99900167,9.56400334 7.44800167,10.0130033 8.00100167,10.0120033 L23.9990017,9.99800334 C24.5510017,9.99700334 24.9980017,9.55000334 24.9980017,8.99800334 L24.9980017,5.00600334 C24.9980017,4.45400334 24.5500017,4.00600334 23.9980017,4.00600334 L21.0320017,4.00600334 L21.0320017,4.00600334 Z" id="Stroke-524" stroke="#2E5BEC" stroke-width="2"></path>
                                    <path d="M25,7 L25,9.001 C25,9.553 24.553,10 24.001,10.001 L8.001,10.015 C7.448,10.015 7,9.567 7,9.015 L7,7 L4,7 C1.791,7 0,8.791 0,11 L0,43 C0,45.209 1.791,47 4,47 L28,47 C30.209,47 32,45.209 32,43 L32,11 C32,8.791 30.209,7 28,7 L25,7 Z" id="Fill-525" fill="#FFFFFF"></path>
                                    <path d="M25,7 L25,9.001 C25,9.553 24.553,10 24.001,10.001 L8.001,10.015 C7.448,10.015 7,9.567 7,9.015 L7,7 L4,7 C1.791,7 0,8.791 0,11 L0,43 C0,45.209 1.791,47 4,47 L28,47 C30.209,47 32,45.209 32,43 L32,11 C32,8.791 30.209,7 28,7 L25,7 L25,7 Z" id="Stroke-526" stroke="#2E5BEC" stroke-width="2"></path>
                                    <path d="M26,28 C26,22.477 21.523,18 16,18 C10.477,18 6,22.477 6,28 C6,33.523 10.477,38 16,38 C21.523,38 26,33.523 26,28" id="Fill-528"></path>
                                    <path d="M26,28 C26,22.477 21.523,18 16,18 C10.477,18 6,22.477 6,28 C6,33.523 10.477,38 16,38 C21.523,38 26,33.523 26,28 L26,28 Z" id="Stroke-529" stroke="#2E5BEC" stroke-width="2"></path>
                                    <g id="Full-vector-path" transform="translate(11.000000, 23.000000)" fill="#46CE92">
                                        <path d="M1.26351197,5.41177276 L4.24650678,3.23434517 C4.68625904,2.91334941 5.40233387,2.9225125 5.83961286,3.2594042 L8.66964265,5.43973662 L5.89556789,7.38116756 C5.31482206,7.78760142 4.38801793,7.77154311 3.82453211,7.34597274 L1.26351197,5.41177276 Z M0.564344061,5.92212816 L0.338221143,6.08718587 C-0.104348058,6.41023785 -0.114852859,6.93515153 0.320082768,7.26363488 L4.0616094,10.0894076 C4.49416105,10.4160904 5.21020983,10.4251973 5.65459106,10.1141979 L9.60401654,7.35019999 C10.0512444,7.03720845 10.0617195,6.51223074 9.62203049,6.17348228 L9.36827353,5.97798097 L6.09323597,8.27000978 C5.39198782,8.76077696 4.29815832,8.7420761 3.61729537,8.22785715 L0.564344061,5.92212816 Z" id="Base-layer"></path>
                                        <path d="M5.92158938,0.330676281 L9.26264295,2.90471541 C9.82221576,3.33582561 9.80464985,4.01396696 9.2243342,4.42009977 L5.75686238,6.84680332 C5.17611655,7.25323719 4.24931242,7.23717887 3.6858266,6.81160851 L0.418454549,4.34393914 C-0.144681232,3.91863314 -0.138824111,3.23540849 0.432318641,2.81850465 L3.87499826,0.305531589 C4.44639819,-0.111559975 5.36243107,-0.100114588 5.92158938,0.330676281 Z M5.71187268,0.566014007 C5.27175425,0.22693472 4.52757022,0.217743628 4.07796802,0.545929325 L0.635288404,3.05890239 C0.230138785,3.35464007 0.226118094,3.80493367 0.625691284,4.10670968 L3.89306333,6.57437905 C4.33946064,6.9115188 5.09924793,6.92450864 5.5591943,6.60261605 L9.02666612,4.1759125 C9.43754429,3.88836019 9.44883595,3.44507279 9.05292626,3.14005313 L5.71187268,0.566014007 Z" id="Middle-layer" stroke="#46CE92" stroke-width="0.56789775"></path>
                                    </g>
                                </g>
                            </g>
                        </g>
                    </g>
                </g>
            </g>
        </g>
    </g>
</svg>