<?xml version="1.0" encoding="iso-8859-1"?>
<!-- Generator: Adobe Illustrator 19.0.0, SVG Export Plug-In . SVG Version: 6.00 Build 0)  -->
<svg version="1.1" id="Layer_1" xmlns="http://www.w3.org/2000/svg" xmlns:xlink="http://www.w3.org/1999/xlink" x="0px" y="0px"
	 viewBox="0 0 512 512" style="enable-background:new 0 0 512 512;" xml:space="preserve">
<g>
	<g>
		<rect x="236.747" y="55.124" width="25.083" height="15.208"/>
	</g>
</g>
<g>
	<g>
		<path d="M341.671,241.723H512v-47.545h-35.498c-3.475-17.724-18.849-31.228-37.433-31.83v-61.261
			c3.777-2.48,6.275-6.747,6.275-11.603c0-7.665-6.214-13.878-13.879-13.878c-0.14,0-0.276,0.017-0.415,0.021l-49.507-49.511
			c0.961-6.885-1.174-14.124-6.457-19.407c-8.941-8.939-23.489-8.938-32.428,0.001L339.969,9.4
			c-15.828-4.297-32.904,0.124-44.68,11.898l-28.992,28.993l13.738,13.738c-2.277,4.079-3.495,8.69-3.495,13.49
			c0,7.41,2.885,14.377,8.124,19.615c5.408,5.407,12.512,8.111,19.615,8.111c4.654,0,9.305-1.169,13.482-3.49l13.746,13.746
			l28.993-28.992c11.774-11.775,16.193-28.852,11.898-44.68l1.675-1.674l44.425,44.425c-0.578,1.527-0.908,3.175-0.908,4.905
			c0,4.854,2.497,9.122,6.274,11.602v61.262c-18.583,0.602-33.957,14.105-37.432,31.83H224.155v-71.953h-9.263l3.978-10.281
			l-14.182-5.489l-6.102,15.77h-3.62V77.617h-15.208v44.609h-1.251l-12.649-26.318l-13.707,6.588l9.482,19.73h-15.122v30.141H38.328
			v41.811H0v47.545h170.329v57.698h48.413l-89.433,212.573h45.953l19.053-45.288h123.369l19.054,45.288h45.953l-89.433-212.573
			h48.413V241.723z M295.416,86.379c-2.366-2.366-3.669-5.513-3.669-8.86c0-0.56,0.05-1.11,0.122-1.656l14.06,14.06
			C302.194,90.415,298.28,89.243,295.416,86.379z M364.332,28.385l-9.524,9.524l1.829,4.639c4.52,11.465,1.814,24.498-6.893,33.204
			l-18.238,18.239l-43.701-43.701l18.239-18.238c8.707-8.707,21.741-11.412,33.205-6.892l4.639,1.829l9.525-9.524
			c3.009-3.012,7.909-3.012,10.919,0C367.342,20.475,367.342,25.373,364.332,28.385z M425.154,177.524h12.625
			c10.721,0,19.84,6.992,23.038,16.655h-58.7C405.313,184.516,414.433,177.524,425.154,177.524z M161.72,152.367v-14.933h47.227
			v56.745H161.72V152.367z M53.536,167.575h92.976v26.603H53.536V167.575z M15.208,226.515v-17.129h23.12h108.184h15.208h62.435
			h161.532h91.558h19.547v17.129H341.671H170.329H15.208z M165.161,496.786h-12.955l81.229-193.074h12.954L165.161,496.786z
			 M255.999,320.086l42.965,102.124h-85.93L255.999,320.086z M200.713,451.498l5.923-14.08h98.726l5.923,14.08H200.713z
			 M359.794,496.786h-12.955L265.61,303.712h12.955L359.794,496.786z M326.463,284.213H185.537v-42.49h140.927V284.213z"/>
	</g>
</g>
<g>
	<g>
		<rect x="225.452" y="255.361" width="17.266" height="15.208"/>
	</g>
</g>
<g>
	<g>
		<rect x="269.292" y="255.361" width="17.266" height="15.208"/>
	</g>
</g>
<g>
	<g>
		<rect x="257.336" y="104.32" transform="matrix(0.7071 -0.7071 0.7071 0.7071 -0.0964 223.614)" width="25.083" height="15.208"/>
	</g>
</g>
<g>
	<g>
		<rect x="311.418" y="120.031" width="15.208" height="24.791"/>
	</g>
</g>
<g>
</g>
<g>
</g>
<g>
</g>
<g>
</g>
<g>
</g>
<g>
</g>
<g>
</g>
<g>
</g>
<g>
</g>
<g>
</g>
<g>
</g>
<g>
</g>
<g>
</g>
<g>
</g>
<g>
</g>
</svg>
