<?xml version="1.0" encoding="UTF-8"?>
<svg width="32px" height="36px" viewBox="0 0 32 36" version="1.1" xmlns="http://www.w3.org/2000/svg" xmlns:xlink="http://www.w3.org/1999/xlink">
    <!-- Generator: Sketch 45.1 (43504) - http://www.bohemiancoding.com/sketch -->
    <title>Upload</title>
    <desc>Created with Sketch.</desc>
    <defs></defs>
    <g id="Page-1" stroke="none" stroke-width="1" fill="none" fill-rule="evenodd">
        <g id="Upload" transform="translate(-10.000000, -17.000000)">
            <rect id="Rectangle" x="0" y="0" width="51.6386315" height="69.8877212"></rect>
            <path d="M20.3,52.1 C17.7,52.1 15,51.1 13,49.1 C9,45.1 9,38.5 13,34.5 L28.2,19.3 C31.2,16.3 36.1,16.3 39.1,19.3 C40.6,20.8 41.4,22.7 41.4,24.8 C41.4,26.9 40.6,28.8 39.1,30.3 L24,45.3 C22,47.3 18.8,47.3 16.8,45.3 C15.8,44.3 15.3,43 15.3,41.7 C15.3,40.3 15.8,39 16.8,38.1 L29.1,25.8 L30.5,27.2 L18.2,39.5 C17.6,40.1 17.3,40.9 17.3,41.7 C17.3,42.5 17.6,43.3 18.2,43.9 C19.4,45.1 21.4,45.1 22.6,43.9 L37.8,28.8 C38.9,27.7 39.5,26.3 39.5,24.7 C39.5,23.2 38.9,21.7 37.8,20.6 C35.6,18.4 31.9,18.4 29.7,20.6 L14.5,35.8 C11.2,39.1 11.2,44.3 14.5,47.6 C17.8,50.9 23,50.9 26.3,47.6 L38.7,35.2 L40.1,36.6 L27.7,49 C25.6,51.1 23,52.1 20.3,52.1 Z" id="Shape" fill="#000000" fill-rule="nonzero"></path>
        </g>
    </g>
</svg>