<?xml version="1.0" encoding="UTF-8"?>
<svg width="492px" height="492px" viewBox="0 0 492 492" version="1.1" xmlns="http://www.w3.org/2000/svg" xmlns:xlink="http://www.w3.org/1999/xlink">
    <!-- Generator: Sketch 45.2 (43514) - http://www.bohemiancoding.com/sketch -->
    <title>company</title>
    <desc>Created with Sketch.</desc>
    <defs></defs>
    <g id="Page-1" stroke="none" stroke-width="1" fill="none" fill-rule="evenodd">
        <g id="company" fill-rule="nonzero">
            <circle id="Oval" fill="#F3F7FD" cx="245.76" cy="245.76" r="245.76"></circle>
            <g id="Group" transform="translate(123.000000, 128.000000)" fill="#64798A">
                <polygon id="Shape" points="197.175 93.342 189.934 86.102 234.935 41.102 234.935 0.467 245.175 0.467 245.175 45.342"></polygon>
                <polygon id="Shape" points="245.175 244.502 234.935 244.502 234.935 203.867 189.934 158.867 197.175 151.627 245.175 199.627"></polygon>
                <polygon id="Shape" points="48.35 121.382 0.35 73.382 0.35 28.507 10.589 28.507 10.589 69.142 55.589 114.142"></polygon>
                <polygon id="Shape" points="10.589 244.502 0.35 244.502 0.35 199.627 48.35 151.627 55.589 158.867 10.589 203.867"></polygon>
            </g>
            <circle id="Oval" fill="#FCD462" cx="245.76" cy="250.87" r="105.646"></circle>
            <path d="M245.76,145.224 C187.506,145.224 140.114,192.617 140.114,250.87 C140.114,309.124 187.506,356.516 245.76,356.516 C304.014,356.516 351.406,309.124 351.406,250.87 C351.406,192.616 304.014,145.224 245.76,145.224 Z M149.389,255.393 L184.289,255.393 C184.629,269.897 186.597,283.555 189.894,295.869 L160.349,295.869 C153.902,283.681 150.067,269.948 149.389,255.393 Z M250.283,196.826 L250.283,154.691 C266.474,157.251 280.596,173.335 289.244,196.826 L250.283,196.826 Z M292.17,205.871 C295.673,218.059 297.756,231.791 298.125,246.347 L250.283,246.347 L250.283,205.871 L292.17,205.871 Z M241.237,154.691 L241.237,196.826 L202.276,196.826 C210.924,173.335 225.046,157.251 241.237,154.691 Z M241.237,205.871 L241.237,246.347 L193.395,246.347 C193.764,231.791 195.847,218.059 199.35,205.871 L241.237,205.871 Z M184.289,246.347 L149.389,246.347 C150.067,231.791 153.902,218.059 160.349,205.871 L189.894,205.871 C186.597,218.185 184.629,231.843 184.289,246.347 Z M193.395,255.393 L241.237,255.393 L241.237,295.869 L199.35,295.869 C195.847,283.681 193.764,269.948 193.395,255.393 Z M241.237,304.914 L241.237,347.048 C225.046,344.488 210.924,328.405 202.276,304.914 L241.237,304.914 Z M250.283,347.048 L250.283,304.914 L289.244,304.914 C280.596,328.405 266.474,344.488 250.283,347.048 Z M250.283,295.868 L250.283,255.392 L298.125,255.392 C297.756,269.948 295.673,283.68 292.17,295.868 L250.283,295.868 Z M307.231,255.393 L342.131,255.393 C341.453,269.949 337.618,283.681 331.171,295.869 L301.626,295.869 C304.923,283.554 306.891,269.897 307.231,255.393 Z M307.231,246.347 C306.891,231.843 304.923,218.185 301.626,205.871 L331.171,205.871 C337.619,218.059 341.453,231.791 342.131,246.347 L307.231,246.347 Z M325.786,196.826 L298.884,196.826 C293.637,181.415 286.178,168.621 277.197,159.626 C297.128,166.514 314.161,179.666 325.786,196.826 Z M214.323,159.625 C205.343,168.621 197.884,181.415 192.636,196.825 L165.733,196.825 C177.359,179.666 194.392,166.514 214.323,159.625 Z M165.734,304.914 L192.637,304.914 C197.884,320.324 205.343,333.118 214.324,342.114 C194.392,335.226 177.359,322.074 165.734,304.914 Z M277.197,342.114 C286.177,333.118 293.636,320.324 298.884,304.914 L325.786,304.914 C314.161,322.074 297.128,335.226 277.197,342.114 Z" id="Shape" fill="#DC8744"></path>
            <circle id="Oval" fill="#DD687B" cx="363.054" cy="128.461" r="23.506"></circle>
            <path d="M374.097,107.72 C377.346,111.752 379.301,116.873 379.301,122.454 C379.301,135.437 368.776,145.961 355.794,145.961 C351.8,145.961 348.043,144.958 344.75,143.201 C349.058,148.547 355.652,151.975 363.053,151.975 C376.035,151.975 386.56,141.45 386.56,128.468 C386.56,119.478 381.511,111.674 374.097,107.72 Z" id="Shape" fill="#D8586D"></path>
            <circle id="Oval" fill="#2E5BEC" cx="363.054" cy="363.054" r="23.506"></circle>
            <path d="M374.097,342.305 C377.346,346.337 379.301,351.457 379.301,357.039 C379.301,370.022 368.776,380.546 355.794,380.546 C351.8,380.546 348.043,379.543 344.75,377.786 C349.058,383.132 355.652,386.56 363.053,386.56 C376.035,386.56 386.56,376.035 386.56,363.053 C386.56,354.063 381.511,346.259 374.097,342.305 Z" id="Shape" fill="#1D47CE"></path>
            <circle id="Oval" fill="#46CE92" cx="128.461" cy="161.295" r="23.506"></circle>
            <path d="M139.512,140.549 C142.762,144.581 144.716,149.702 144.716,155.283 C144.716,168.266 134.191,178.79 121.209,178.79 C117.215,178.79 113.458,177.787 110.164,176.03 C114.472,181.376 121.067,184.803 128.467,184.803 C141.449,184.803 151.974,174.279 151.974,161.296 C151.975,152.308 146.926,144.504 139.512,140.549 Z" id="Shape" fill="#3EA69B"></path>
            <circle id="Oval" fill="#FCD462" cx="128.461" cy="363.054" r="23.506"></circle>
            <path d="M139.512,342.305 C142.762,346.337 144.716,351.457 144.716,357.039 C144.716,370.022 134.191,380.546 121.209,380.546 C117.215,380.546 113.458,379.543 110.164,377.786 C114.472,383.132 121.067,386.56 128.467,386.56 C141.449,386.56 151.974,376.035 151.974,363.053 C151.975,354.063 146.926,346.259 139.512,342.305 Z" id="Shape" fill="#F6C358"></path>
        </g>
    </g>
</svg>