<?xml version="1.0" encoding="UTF-8"?>
<svg width="508px" height="508px" viewBox="0 0 508 508" version="1.1" xmlns="http://www.w3.org/2000/svg" xmlns:xlink="http://www.w3.org/1999/xlink">
    <!-- Generator: Sketch 45.2 (43514) - http://www.bohemiancoding.com/sketch -->
    <title>preferences</title>
    <desc>Created with Sketch.</desc>
    <defs></defs>
    <g id="Page-1" stroke="none" stroke-width="1" fill="none" fill-rule="evenodd">
        <g id="preferences" fill-rule="nonzero">
            <circle id="Oval" fill="#2E5BEC" cx="254" cy="254" r="254"></circle>
            <path d="M280,135.6 L276,142.8 C270,154 258,161.2 244.8,161.2 L116.8,161.2 C97.2,161.2 81.2,177.2 81.2,196.8 L81.2,351.6 C81.2,371.2 97.2,387.2 116.8,387.2 L391.2,387.2 C410.8,387.2 426.8,371.2 426.8,351.6 L426.8,152.4 C426.8,132.8 410.8,116.8 391.2,116.8 L311.2,116.8 C298,116.8 286,124 280,135.6 Z" id="Shape" fill="#FFFFFF"></path>
            <g id="Group" transform="translate(115.000000, 206.000000)" fill="#46CE92">
                <circle id="Oval" cx="60.2" cy="26.8" r="26"></circle>
                <path d="M119,138.4 C119.4,135.2 119.8,132.4 119.8,129.2 C119.8,96 93,69.6 60.2,69.6 C27,69.6 0.6,96.4 0.6,129.2 C0.6,132.4 1,135.2 1.4,138.4 L119,138.4 Z" id="Shape"></path>
            </g>
            <g id="Group" transform="translate(274.000000, 217.000000)" fill="#E6E9EE">
                <rect id="Rectangle-path" x="0" y="0.6" width="115.2" height="14"></rect>
                <rect id="Rectangle-path" x="0" y="34.6" width="115.2" height="14"></rect>
                <rect id="Rectangle-path" x="0" y="68.6" width="115.2" height="14"></rect>
                <rect id="Rectangle-path" x="0" y="102.6" width="115.2" height="14"></rect>
            </g>
        </g>
    </g>
</svg>