<?xml version="1.0" encoding="UTF-8"?>
<svg width="508px" height="508px" viewBox="0 0 508 508" version="1.1" xmlns="http://www.w3.org/2000/svg" xmlns:xlink="http://www.w3.org/1999/xlink">
    <!-- Generator: Sketch 45.2 (43514) - http://www.bohemiancoding.com/sketch -->
    <title>users</title>
    <desc>Created with Sketch.</desc>
    <defs></defs>
    <g id="Page-1" stroke="none" stroke-width="1" fill="none" fill-rule="evenodd">
        <g id="users" fill-rule="nonzero">
            <circle id="Oval" fill="#46CE92" cx="254" cy="254" r="254"></circle>
            <path d="M372.8,296.8 L372.8,296.8 L372.8,296.8 L372.8,296.8 L335.6,314.8 L335.6,390.4 L357.2,413.6 C362.4,414.4 367.2,414.8 372.4,414.8 C377.6,414.8 382.8,414.4 387.6,413.6 L409.2,390.4 L409.2,314.4 L372.8,296.8 L372.8,296.8 Z" id="Shape" fill="#E6E9EE"></path>
            <circle id="Oval" fill="#F9B54C" cx="372.8" cy="306" r="24"></circle>
            <polygon id="Shape" fill="#F1543F" points="382.8 330 362.8 330 366.8 341.6 379.2 341.6"></polygon>
            <path d="M356.8,413.2 C362,414 367.6,414.4 373.2,414.4 C378.8,414.4 384,414 389.6,413.2 L379.6,341.6 L367.2,341.6 L356.8,413.2 Z" id="Shape" fill="#FF7058"></path>
            <g id="Group" transform="translate(286.000000, 310.000000)" fill="#324A5E">
                <path d="M174,60 L162,22.8 L115.2,0.4 C115.2,16.4 114,56.8 94.8,104.4 C127.2,101.6 155.6,84.8 174,60 Z" id="Shape"></path>
                <path d="M79.2,104 C60,56.4 58.8,16.4 58.8,0 L12,22.8 L0,60 C18,84.8 46.4,101.6 79.2,104 Z" id="Shape"></path>
            </g>
            <g id="Group" transform="translate(343.000000, 301.000000)" fill="#FFFFFF">
                <path d="M53,0.2 C53,0.2 55.8,16.6 29.8,29.4 C29.8,29.4 49.4,31 55,49.4 C55.4,49.8 65.8,9.8 53,0.2 Z" id="Shape"></path>
                <path d="M6.6,0.2 C6.6,0.2 3.8,16.6 29.8,29.4 C29.8,29.4 10.2,31 4.6,49.4 C4.6,49.8 -6.2,9.8 6.6,0.2 Z" id="Shape"></path>
            </g>
            <path d="M411.6,256.4 C411.6,281.6 394.4,313.2 372.8,313.2 C351.2,313.2 334,282 334,256.4 C334,230.8 351.2,221.2 372.8,221.2 C394.4,221.2 411.6,231.2 411.6,256.4 Z" id="Shape" fill="#FFD05B"></path>
            <path d="M359.6,216 C359.6,216 390.8,203.6 406.8,232 C424,262.4 402.4,295.2 398,298 C398,298 399.2,292.8 402.4,282.8 C402.4,282.8 410,260.4 387.2,256.8 C387.2,256.8 364.8,253.6 363.2,248.8 C363.2,248.8 364.8,256.8 374.8,258.4 C374.8,258.4 352,258 344.8,249.6 C344.8,249.6 335.2,282 349.2,299.2 C349.2,299.2 324.4,279.6 327.6,249.2 C327.6,249.2 326.4,207.6 359.6,216 Z" id="Shape" fill="#324A5E"></path>
            <path d="M135.2,296.8 L135.2,296.8 L135.2,296.8 L135.2,296.8 L98,314.4 L98,390 L119.6,413.2 C124.8,414 129.6,414.4 134.8,414.4 C140,414.4 145.2,414 150,413.2 L171.6,390 L171.6,314.4 L135.2,296.8 L135.2,296.8 Z" id="Shape" fill="#E6E9EE"></path>
            <circle id="Oval" fill="#F9B54C" cx="135.2" cy="306" r="24"></circle>
            <polygon id="Shape" fill="#F1543F" points="145.2 330 125.2 330 128.8 341.6 141.2 341.6"></polygon>
            <path d="M118.8,413.2 C124,414 129.6,414.4 135.2,414.4 C140.8,414.4 146,414 151.6,413.2 L141.6,341.6 L129.2,341.6 L118.8,413.2 Z" id="Shape" fill="#FF7058"></path>
            <g id="Group" transform="translate(48.000000, 310.000000)" fill="#324A5E">
                <path d="M174,60 L162,22.8 L115.2,0.4 C115.2,16.4 114,56.8 94.8,104.4 C127.6,101.6 156,84.8 174,60 Z" id="Shape"></path>
                <path d="M79.2,104 C60,56.4 58.8,16.4 58.8,0 L12,22.4 L0,59.6 C18.4,84.8 46.8,101.6 79.2,104 Z" id="Shape"></path>
            </g>
            <g id="Group" transform="translate(105.000000, 301.000000)" fill="#FFFFFF">
                <path d="M53.4,0.2 C53.4,0.2 56.2,16.6 30.2,29.4 C30.2,29.4 49.8,31 55.4,49.4 C55.4,49.8 66.2,9.8 53.4,0.2 Z" id="Shape"></path>
                <path d="M7,0.2 C7,0.2 4.2,16.6 30.2,29.4 C30.2,29.4 10.6,31 5,49.4 C4.6,49.8 -5.8,9.8 7,0.2 Z" id="Shape"></path>
            </g>
            <path d="M174,256.4 C174,281.6 156.8,313.2 135.2,313.2 C113.6,313.2 96.4,282 96.4,256.4 C96.4,230.8 113.6,221.2 135.2,221.2 C156.4,221.2 174,231.2 174,256.4 Z" id="Shape" fill="#FFD05B"></path>
            <path d="M121.6,216 C121.6,216 152.8,203.6 168.8,232 C186,262.4 164.4,295.2 160,298 C160,298 161.2,292.8 164.4,282.8 C164.4,282.8 172,260.4 149.2,256.8 C149.2,256.8 126.8,253.6 125.2,248.8 C125.2,248.8 126.8,256.8 136.8,258.4 C136.8,258.4 114,258 106.8,249.6 C106.8,249.6 97.2,282 111.2,299.2 C111.2,299.2 86.4,279.6 89.6,249.2 C89.6,249.2 88.4,207.6 121.6,216 Z" id="Shape" fill="#324A5E"></path>
            <ellipse id="Oval" fill="#2B3B4E" cx="254" cy="51.2" rx="20.8" ry="14"></ellipse>
            <path d="M286.8,115.6 C288.8,107.6 290,99.2 290,91.6 C290,63.2 274,52 254,52 C234,52 218,63.2 218,91.6 C218,99.2 219.2,107.6 221.2,115.6 L286.8,115.6 Z" id="Shape" fill="#324A5E"></path>
            <circle id="Oval" fill="#F9B54C" cx="254" cy="143.6" r="24"></circle>
            <path d="M328.8,170.4 L282,148 L282,148 L254,134.4 L254,134.4 L254,134.4 L254,134.4 L254,134.4 L226,148 L226,148 L179.2,170.4 L170,198.8 C177.6,208.4 186.4,216.4 196.8,222.8 C214,233.6 234,238.4 254,238.4 L254.4,238.4 C274.4,238.4 294.4,233.2 311.2,222.8 C321.6,216.4 330.4,208.4 338,198.8 L328.8,170.4 Z" id="Shape" fill="#FF7058"></path>
            <g id="Group" transform="translate(224.000000, 138.000000)" fill="#FFFFFF">
                <path d="M53.2,0.8 C53.2,0.8 56,17.2 30,30 C30,30 49.6,31.6 55.2,50 C55.6,50.4 66,10.4 53.2,0.8 Z" id="Shape"></path>
                <path d="M6.8,0.8 C6.8,0.8 4,17.2 30,30 C30,30 10.4,31.6 4.8,50 C4.8,50.4 -6,10.4 6.8,0.8 Z" id="Shape"></path>
            </g>
            <path d="M288.8,107.2 C287.6,106.4 286.4,106.4 285.2,106.8 L285.2,106.8 C286,94 278,92 278,92 C270,88.8 266.8,81.2 265.6,75.6 C262,79.2 256.8,83.2 247.6,87.2 C222.4,97.6 223.6,107.2 223.6,107.2 L223.6,107.2 L223.2,106.8 L223.2,106.8 C222,106.4 220.4,106.4 219.6,107.2 C217.2,109.2 217.2,114.4 219.6,119.2 C222,123.6 225.6,126 228.4,124.4 C234,139.6 243.6,151.2 254.8,151.2 C265.6,151.2 275.2,139.2 281.2,124.4 C283.6,126 287.6,123.6 290,119.2 C291.2,114.4 291.2,108.8 288.8,107.2 Z" id="Shape" fill="#FFD05B"></path>
            <g id="Group" transform="translate(192.000000, 202.000000)" fill="#F1543F">
                <path d="M123.6,18 L115.6,0.8 C115.6,0.8 117.6,12.8 112.4,24.8 C116.4,22.4 120,20.4 123.6,18 Z" id="Shape"></path>
                <path d="M0.8,18 C4.4,20.4 8,22.8 11.6,24.8 C6.4,13.2 8.4,0.8 8.4,0.8 L0.8,18 Z" id="Shape"></path>
            </g>
            <path d="M394.8,262.4 L383.2,262.4 L382,262.4 L363.6,262.4 L363.2,262.4 L351.2,262.4 C347.6,262.4 344.8,265.2 344.8,268.8 L344.8,274.4 C344.8,278 347.6,280.8 351.2,280.8 L364,280.8 C365.6,280.8 367.2,280 368.4,279.2 C368.8,279.2 369.2,278.8 369.2,278.4 C370,276.4 371.6,275.2 373.2,275.2 C374.8,275.2 376.4,276.4 377.2,278.4 C377.2,278.8 377.6,279.2 378,279.2 C379.2,280.4 380.8,280.8 382.4,280.8 L395.2,280.8 C398.8,280.8 401.6,278 401.6,274.4 L401.6,268.8 C401.2,265.2 398.4,262.4 394.8,262.4 Z M351.2,277.6 C349.2,277.6 347.6,276 347.6,274 L347.6,268.4 C347.6,266.4 349.2,264.8 351.2,264.8 L363.2,264.8 L363.6,264.8 C365.6,264.8 367.2,266.4 367.2,268.4 L367.2,274 C367.2,274.4 367.2,274.8 366.8,275.2 C366.8,275.6 366.4,275.6 366.4,276 C365.6,276.8 364.8,277.2 363.6,277.2 L351.2,277.2 L351.2,277.6 L351.2,277.6 Z M372.8,272 C372,272 370.8,272.4 370,272.8 L370,269.2 C370,268 369.6,266.8 369.2,265.6 L376.8,265.6 C376,266.4 376,267.6 376,269.2 L376,272.8 C374.8,272.4 374,272 372.8,272 Z M398.4,274.4 C398.4,276.4 396.8,278 394.8,278 L382,278 C380.8,278 380,277.6 379.2,276.8 C379.2,276.4 378.8,276.4 378.8,276 C378.8,275.6 378.4,275.2 378.4,274.8 L378.4,269.2 C378.4,267.2 380,265.6 382,265.6 L383.2,265.6 L394.8,265.6 C396.8,265.6 398.4,267.2 398.4,269.2 L398.4,274.4 L398.4,274.4 Z" id="Shape" fill="#324A5E"></path>
        </g>
    </g>
</svg>