<?xml version="1.0" encoding="UTF-8"?>
<svg width="186px" height="189px" viewBox="0 0 186 189" version="1.1" xmlns="http://www.w3.org/2000/svg" xmlns:xlink="http://www.w3.org/1999/xlink">
    <!-- Generator: Sketch 43.2 (39069) - http://www.bohemiancoding.com/sketch -->
    <title>icon-new</title>
    <desc>Created with Sketch.</desc>
    <defs>
        <polygon id="path-1" points="5.44828235 0.089 107.907247 5.453 0.823341176 15.414"></polygon>
        <polygon id="path-3" points="15.252 78.801 0.181 82.502 0.181 0.521"></polygon>
    </defs>
    <g id="Page-1" stroke="none" stroke-width="1" fill="none" fill-rule="evenodd">
        <g id="icon-new">
            <g id="Group-1428" transform="translate(0.000000, 4.000000)">
                <g id="Fill-1281-Clipped">
                    <mask id="mask-2" fill="white">
                        <use xlink:href="#path-1"></use>
                    </mask>
                    <g id="path-1"></g>
                    <polyline id="Fill-1281" fill="#8C000B" fill-rule="nonzero" mask="url(#mask-2)" points="0.0368470588 0.114 0.998682353 18.817 18.1160471 18.272 17.1554824 -0.431"></polyline>
                </g>
            </g>
            <g id="Group-1572" transform="translate(167.000000, 106.000000)">
                <g id="Fill-1429-Clipped">
                    <mask id="mask-4" fill="white">
                        <use xlink:href="#path-3"></use>
                    </mask>
                    <g id="path-3"></g>
                    <polyline id="Fill-1429" fill="#8C000B" fill-rule="nonzero" mask="url(#mask-4)" points="-0.827 82.49 15.25 82.687 15.493 62.9 -0.584 62.702"></polyline>
                </g>
            </g>
            <g id="Group-1695" transform="translate(5.000000, 0.000000)" fill-rule="nonzero" fill="#B90000">
                <g id="Clip-1574">
                    <path d="M2.519,2.894 L67.956,0.793 C70.33,0.717 73.638,2.04 75.302,3.734 L177.237,107.373 C178.903,109.067 180.206,112.395 180.133,114.771 L178.058,182.638 C177.985,185.013 176.567,185.565 174.906,183.867 L1.221,6.122 C-0.439,4.423 0.146,2.97 2.519,2.894 Z" id="path-6"></path>
                </g>
            </g>
            <g id="Free" transform="translate(119.732889, 80.631241) rotate(46.000000) translate(-119.732889, -80.631241) translate(66.232889, 50.631241)" font-size="48" font-family="HelveticaNeue-Bold, Helvetica Neue" fill="#FCFDFD" font-weight="bold">
                <text id="Beta">
                    <tspan x="0.28961486" y="47.3314441">Beta</tspan>
                </text>
            </g>
        </g>
    </g>
</svg>