<?xml version="1.0" encoding="UTF-8"?>
<svg width="187px" height="189px" viewBox="0 0 187 189" version="1.1" xmlns="http://www.w3.org/2000/svg" xmlns:xlink="http://www.w3.org/1999/xlink">
    <!-- Generator: Sketch 43.2 (39069) - http://www.bohemiancoding.com/sketch -->
    <title>icon-beta</title>
    <desc>Created with Sketch.</desc>
    <defs>
        <polygon id="path-1" points="5.47757419 0.089 108.487393 5.453 0.827767741 15.414"></polygon>
        <polygon id="path-3" points="15.334 78.801 0.181973118 82.502 0.181973118 0.521"></polygon>
    </defs>
    <g id="Page-1" stroke="none" stroke-width="1" fill="none" fill-rule="evenodd">
        <g id="icon-beta" transform="translate(93.000000, 92.500000) scale(-1, 1) translate(-93.000000, -92.500000) translate(-1.000000, -4.000000)">
            <g id="Group-1428" transform="translate(0.000000, 8.000000)">
                <g id="Fill-1281-Clipped">
                    <mask id="mask-2" fill="white">
                        <use xlink:href="#path-1"></use>
                    </mask>
                    <g id="path-1"></g>
                    <polyline id="Fill-1281" fill="#8C000B" fill-rule="nonzero" mask="url(#mask-2)" points="0.0370451613 0.114 1.00405161 18.817 18.2134452 18.272 17.2477162 -0.431"></polyline>
                </g>
            </g>
            <g id="Group-1572" transform="translate(167.897849, 110.000000)">
                <g id="Fill-1429-Clipped">
                    <mask id="mask-4" fill="white">
                        <use xlink:href="#path-3"></use>
                    </mask>
                    <g id="path-3"></g>
                    <polyline id="Fill-1429" fill="#8C000B" fill-rule="nonzero" mask="url(#mask-4)" points="-0.831446237 82.49 15.3319892 82.687 15.5762957 62.9 -0.587139785 62.702"></polyline>
                </g>
            </g>
            <g id="Group-1695" transform="translate(5.026882, 4.000000)" fill-rule="nonzero" fill="#B90000">
                <g id="Clip-1574">
                    <path d="M2.53254301,2.894 L68.3213548,0.793 C70.7081183,0.717 74.0339032,2.04 75.7068495,3.734 L178.189887,107.373 C179.864844,109.067 181.174849,112.395 181.101457,114.771 L179.015301,182.638 C178.941909,185.013 177.516285,185.565 175.846355,183.867 L1.22756452,6.122 C-0.441360215,4.423 0.146784946,2.97 2.53254301,2.894 Z" id="path-6"></path>
                </g>
            </g>
            <g id="Free" transform="translate(103.556216, 67.818447) rotate(46.000000) translate(-103.556216, -67.818447) translate(39.556216, 37.818447)" font-size="48" fill="#FCFDFD" font-family="HelveticaNeue-Bold, Helvetica Neue" font-weight="bold">
                <text id="Beta" transform="translate(63.972594, 29.778946) scale(-1, 1) translate(-63.972594, -29.778946) ">
                    <tspan x="0.173043924" y="47.582779">Beta</tspan>
                </text>
            </g>
        </g>
    </g>
</svg>